<?xml version="1.0" encoding="UTF-8"?><svg id="Layer_1" xmlns="http://www.w3.org/2000/svg" viewBox="0 0 216.5 69"><defs><style>.cls-1{stroke-dasharray:0 0 4.18 6.97;}.cls-1,.cls-2{fill:none;stroke:#fc7070;stroke-linecap:round;stroke-miterlimit:10;stroke-width:4.25px;}.cls-3{fill:#fc7070;}.cls-4{fill:#23001e;}</style></defs><g><g><path class="cls-3" d="M210.53,19.48c-11.97,0,0,14.42,0,14.42,0,0,11.97-14.42,0-14.42Zm0,9.12c-2.23,0-4.05-1.81-4.05-4.05s1.81-4.05,4.05-4.05,4.05,1.81,4.05,4.05-1.81,4.05-4.05,4.05Z"/><path class="cls-3" d="M210.53,21.07c-1.93,0-3.49,1.56-3.49,3.49s1.56,3.49,3.49,3.49,3.49-1.56,3.49-3.49-1.56-3.49-3.49-3.49Zm0,6.42c-1.62,0-2.93-1.31-2.93-2.93s1.31-2.93,2.93-2.93,2.93,1.31,2.93,2.93-1.31,2.93-2.93,2.93Z"/><path class="cls-3" d="M212.81,37.57c.08,1.26-.87,2.34-2.13,2.43s-2.34-.87-2.43-2.13,.87-2.34,2.13-2.43,2.34,.87,2.43,2.13Z"/></g><path class="cls-3" d="M15.95,45.19h0c1.04-.45,1.77-1.42,1.9-2.55l1.35-11.51c.09-.8,.6-1.49,1.34-1.81l4.04-1.79c1.01-.45,1.9-1.11,2.61-1.95l.46-.55c.37-.44,.08-1.11-.49-1.13l-.71-.04c-1.1-.06-2.2,.14-3.21,.56l-4.07,1.72c-.74,.31-1.59,.21-2.24-.27l-9.31-6.9c-.91-.68-2.12-.82-3.16-.36h0c3.9,3.07,7.3,7.53,8.66,9.43,.19,.26,.08,.62-.21,.74h0l-.59-.76c-.29-.37-.81-.46-1.2-.2l-1.05,.7c-.14,.09-.25,.23-.3,.39h0c-.06,.17-.17,.31-.32,.41l-.38,.24,.49-.12c.15-.04,.31-.03,.46,.03l.25,.1,.4,.15-.86,.36c-.55,.23-1.08,.54-1.56,.9l-2.41,1.84-2.34-2.44c-.5-.52-1.3-.63-1.92-.26l-.94,.56,3.39,3.53-.67,.51c-.11,.08-.03,.26,.1,.24l.83-.14,.25,4.89,1.06-.31c.69-.2,1.16-.85,1.12-1.57l-.15-3.39,2.96-.49c.59-.1,1.17-.27,1.72-.52l.86-.38-.16,.39-.1,.25c-.06,.15-.16,.27-.29,.36l-.42,.28,.44-.11c.17-.04,.35-.03,.51,.04h0c.15,.07,.33,.09,.49,.05l1.23-.29c.46-.11,.75-.55,.68-1.01l-.15-.95h0c.29-.13,.63,.04,.69,.36,.45,2.28,1.37,7.82,.93,12.77Z"/><g><path class="cls-2" d="M33.15,21.15c.63-.33,1.27-.65,1.9-.96"/><path class="cls-1" d="M41.34,17.2c64.54-28.97,127.7-7.75,156.84,11.78"/><path class="cls-2" d="M201.04,30.97c.59,.42,1.15,.84,1.71,1.26"/></g></g><g><path class="cls-4" d="M57.6,41.86h-2.79v-11.2h-4.21v-2.8h11.2v2.8h-4.2v11.2Z"/><path class="cls-4" d="M66.09,41.86h-2.8v-14h2.8v5.61h5.6v-5.61h2.8v14h-2.8v-5.6h-5.6v5.6Z"/><path class="cls-4" d="M86.68,41.86h-9.6v-14h9.6v2.8h-6.8v2.8h4.6v2.8h-4.6v2.79h6.8v2.8Z"/><path class="cls-4" d="M100.12,41.86h-2.79v-11.2h-4.21v-2.8h11.2v2.8h-4.2v11.2Z"/><path class="cls-4" d="M108.61,41.86h-2.8v-14h5.6c.51,0,1.01,.07,1.48,.2,.48,.13,.92,.32,1.33,.57,.41,.24,.79,.54,1.13,.88s.63,.72,.88,1.14,.43,.86,.57,1.34c.13,.48,.2,.97,.2,1.48,0,.48-.06,.95-.18,1.41-.12,.46-.29,.89-.52,1.3s-.5,.79-.83,1.13c-.33,.35-.69,.64-1.09,.9l1.55,3.66h-2.98l-1.22-2.82-3.13,.02v2.8Zm0-11.2v5.61h2.8c.38,0,.75-.07,1.08-.22,.34-.15,.63-.35,.89-.6s.45-.55,.6-.89,.22-.7,.22-1.09-.07-.75-.22-1.09-.35-.64-.6-.89-.55-.45-.89-.6c-.34-.15-.7-.22-1.08-.22h-2.8Z"/><path class="cls-4" d="M129.88,41.86h-2.8v-2.8h-5.61v2.8h-2.79v-8.4c0-.77,.15-1.5,.44-2.18s.69-1.27,1.2-1.78c.5-.51,1.1-.91,1.78-1.2,.68-.29,1.41-.44,2.18-.44s1.5,.15,2.18,.44c.68,.29,1.27,.69,1.78,1.2s.91,1.1,1.2,1.78,.44,1.41,.44,2.18v8.4Zm-2.8-5.6v-2.8c0-.38-.07-.75-.22-1.09s-.35-.64-.6-.89-.55-.45-.89-.6-.7-.22-1.09-.22-.75,.07-1.09,.22-.64,.35-.89,.6-.45,.55-.6,.89-.22,.7-.22,1.09v2.8h5.61Z"/><path class="cls-4" d="M142.72,27.86l-4.6,14h-2.8l-4.58-14h3.18l2.79,9.35,2.8-9.35h3.2Z"/><path class="cls-4" d="M153.65,41.86h-9.6v-14h9.6v2.8h-6.8v2.8h4.6v2.8h-4.6v2.79h6.8v2.8Z"/><path class="cls-4" d="M165.42,41.86h-9.8v-14h2.8v11.2h7v2.8Z"/><path class="cls-4" d="M19.66,65.86h-2.8v-14h5.61c.51,0,1.01,.07,1.48,.2s.92,.32,1.33,.57,.79,.54,1.13,.88,.63,.72,.88,1.14,.43,.86,.57,1.34,.2,.97,.2,1.48c0,.77-.15,1.49-.44,2.17s-.69,1.27-1.2,1.78-1.1,.91-1.78,1.2-1.4,.44-2.17,.44h-2.8v2.8Zm0-11.2v5.61h2.8c.38,0,.75-.07,1.08-.22s.63-.35,.89-.6,.45-.55,.6-.89,.22-.7,.22-1.09-.07-.75-.22-1.09-.35-.64-.6-.89-.55-.45-.89-.6-.7-.22-1.08-.22h-2.8Z"/><path class="cls-4" d="M39.3,65.86h-9.6v-14h9.6v2.8h-6.8v2.8h4.6v2.8h-4.6v2.79h6.8v2.8Z"/><path class="cls-4" d="M44.06,65.86h-2.8v-14h5.61c.51,0,1.01,.07,1.48,.2s.92,.32,1.33,.57,.79,.54,1.13,.88,.63,.72,.88,1.14,.43,.86,.57,1.34,.2,.97,.2,1.48c0,.48-.06,.95-.18,1.41s-.29,.89-.52,1.3-.5,.79-.83,1.13-.69,.64-1.09,.9l1.55,3.66h-2.98l-1.22-2.82-3.13,.02v2.8Zm0-11.2v5.61h2.8c.38,0,.75-.07,1.08-.22s.63-.35,.89-.6,.45-.55,.6-.89,.22-.7,.22-1.09-.07-.75-.22-1.09-.35-.64-.6-.89-.55-.45-.89-.6-.7-.22-1.08-.22h-2.8Z"/><path class="cls-4" d="M53.48,56.06c0-.58,.11-1.12,.33-1.63s.52-.95,.9-1.33,.83-.68,1.33-.9,1.05-.33,1.63-.33h6.43v2.8h-6.43c-.2,0-.38,.04-.55,.11s-.32,.17-.44,.3-.23,.27-.3,.44-.11,.35-.11,.55,.04,.38,.11,.55,.17,.32,.3,.45,.27,.23,.44,.3,.35,.11,.55,.11h2.8c.58,0,1.12,.11,1.64,.33s.96,.52,1.34,.9,.68,.83,.9,1.34,.33,1.06,.33,1.64-.11,1.12-.33,1.63-.52,.95-.9,1.33-.83,.68-1.34,.9-1.06,.33-1.64,.33h-6.22v-2.8h6.22c.2,0,.38-.04,.55-.11s.32-.17,.44-.3,.23-.27,.3-.44,.11-.35,.11-.55-.04-.38-.11-.55-.17-.32-.3-.44-.27-.23-.44-.3-.35-.11-.55-.11h-2.8c-.58,0-1.12-.11-1.63-.33s-.95-.52-1.33-.9-.68-.83-.9-1.34-.33-1.06-.33-1.64Z"/><path class="cls-4" d="M80.24,58.92c0,.66-.09,1.3-.26,1.92s-.42,1.19-.73,1.73-.69,1.03-1.13,1.47-.93,.82-1.46,1.14-1.11,.56-1.73,.73-1.26,.26-1.92,.26-1.3-.09-1.92-.26-1.19-.42-1.73-.73-1.03-.7-1.47-1.14-.82-.93-1.14-1.47-.56-1.11-.73-1.73-.26-1.25-.26-1.92,.09-1.31,.26-1.92,.42-1.19,.73-1.73,.69-1.02,1.14-1.46,.93-.82,1.47-1.13,1.11-.56,1.73-.73,1.25-.26,1.92-.26,1.31,.09,1.92,.26,1.19,.42,1.73,.73,1.02,.69,1.46,1.13,.82,.93,1.13,1.46,.56,1.11,.73,1.73,.26,1.26,.26,1.92Zm-2.78,0c0-.61-.12-1.19-.35-1.73s-.55-1.02-.95-1.42-.87-.72-1.42-.95-1.12-.35-1.73-.35-1.2,.12-1.74,.35-1.01,.55-1.42,.95-.72,.87-.96,1.42-.35,1.12-.35,1.73,.12,1.19,.35,1.72,.55,1.01,.96,1.41c.4,.4,.88,.72,1.42,.96s1.12,.35,1.74,.35,1.19-.12,1.73-.35,1.02-.55,1.42-.96c.4-.4,.72-.87,.95-1.41s.35-1.11,.35-1.72Z"/><path class="cls-4" d="M93.27,65.86h-3l-5.4-9.22v9.22h-2.8v-14h3l5.4,9.23v-9.23h2.8v14Z"/><path class="cls-4" d="M106.92,65.86h-2.8v-2.8h-5.61v2.8h-2.79v-8.4c0-.77,.15-1.5,.44-2.18s.69-1.27,1.2-1.78,1.1-.91,1.78-1.2,1.41-.44,2.18-.44,1.5,.15,2.18,.44,1.27,.69,1.78,1.2,.91,1.1,1.2,1.78,.44,1.41,.44,2.18v8.4Zm-2.8-5.6v-2.8c0-.38-.07-.75-.22-1.09s-.35-.64-.6-.89-.55-.45-.89-.6-.7-.22-1.09-.22-.75,.07-1.09,.22-.64,.35-.89,.6-.45,.55-.6,.89-.22,.7-.22,1.09v2.8h5.61Z"/><path class="cls-4" d="M119.15,65.86h-9.8v-14h2.8v11.2h7v2.8Z"/><path class="cls-4" d="M123.41,65.86h-2.8v-14h2.8v14Z"/><path class="cls-4" d="M131.89,65.86h-2.79v-11.2h-4.21v-2.8h11.2v2.8h-4.2v11.2Z"/><path class="cls-4" d="M143.87,65.86h-2.79v-4.38c-.62-.16-1.19-.41-1.7-.75s-.96-.76-1.33-1.24-.66-1.01-.86-1.59-.31-1.2-.31-1.84v-4.2h2.8v4.2c0,.38,.07,.75,.22,1.09s.35,.64,.6,.89,.55,.45,.89,.6,.71,.22,1.09,.22,.75-.07,1.09-.22,.64-.35,.89-.6,.45-.55,.6-.89,.22-.7,.22-1.09v-4.2h2.79v4.2c0,.64-.1,1.26-.31,1.84s-.49,1.11-.86,1.59-.81,.89-1.33,1.24c-.51,.35-1.08,.6-1.7,.75v4.38Z"/><path class="cls-4" d="M167.41,68.67h-3.18l-1.68-2.52c-.09,.01-.18,.02-.26,.02h-.24c-.66,0-1.3-.09-1.92-.26s-1.19-.42-1.73-.73-1.03-.7-1.47-1.14c-.44-.44-.82-.93-1.14-1.47-.32-.54-.56-1.11-.73-1.73-.17-.62-.26-1.25-.26-1.92s.09-1.31,.26-1.92c.17-.62,.42-1.19,.73-1.73,.32-.53,.7-1.02,1.14-1.46,.44-.44,.93-.82,1.47-1.13s1.11-.56,1.73-.73,1.25-.26,1.92-.26,1.31,.09,1.92,.26c.62,.17,1.2,.42,1.73,.73,.53,.31,1.02,.69,1.46,1.13,.44,.44,.82,.93,1.13,1.46s.56,1.11,.73,1.73c.17,.62,.26,1.26,.26,1.92s-.1,1.36-.29,2.01c-.19,.65-.46,1.26-.82,1.82s-.78,1.07-1.27,1.53-1.05,.84-1.67,1.14l2.17,3.24Zm-.91-9.75c0-.61-.12-1.19-.35-1.73s-.55-1.02-.95-1.42-.87-.72-1.42-.95c-.54-.23-1.12-.35-1.73-.35s-1.2,.12-1.74,.35c-.54,.23-1.01,.55-1.42,.95-.4,.4-.72,.87-.96,1.42s-.35,1.12-.35,1.73,.12,1.19,.35,1.72,.55,1.01,.96,1.41c.4,.4,.88,.72,1.42,.96,.54,.23,1.12,.35,1.74,.35s1.19-.12,1.73-.35c.54-.23,1.02-.55,1.42-.96,.4-.4,.72-.87,.95-1.41s.35-1.11,.35-1.72Z"/><path class="cls-4" d="M182.17,60.27c0,.77-.15,1.5-.44,2.18-.29,.68-.69,1.27-1.2,1.78s-1.1,.9-1.78,1.2-1.41,.44-2.18,.44-1.5-.15-2.18-.44-1.27-.69-1.78-1.2-.9-1.1-1.2-1.78c-.29-.68-.44-1.41-.44-2.18v-8.41h2.79v8.41c0,.38,.07,.75,.22,1.08s.35,.63,.6,.89,.55,.45,.89,.6,.71,.22,1.09,.22,.75-.07,1.09-.22,.64-.35,.89-.6,.45-.55,.6-.89,.22-.7,.22-1.08v-8.41h2.8v8.41Z"/><path class="cls-4" d="M187.41,65.86h-2.8v-14h2.8v14Z"/><path class="cls-4" d="M200,65.86h-10.84l5.98-11.2h-5.98v-2.8h10.84l-5.96,11.2h5.96v2.8Z"/></g></svg>